<svg width="163" height="26" viewBox="0 0 163 26" fill="none" xmlns="http://www.w3.org/2000/svg">
<g clip-path="url(#clip0_6589_263)">
<path d="M85.3299 6.43388e-06L85.3299 2.55001L91.4099 2.55001L91.4099 9.95001L94.1099 9.95001L94.1099 2.55001L100.18 2.55001L100.18 7.08299e-06" fill="#FFFFFF"></path>
<path d="M75.7001 7.40001L68.8401 7.40001C67.5001 7.40001 66.4101 6.31001 66.4101 4.97001C66.4101 3.63001 67.5001 2.54001 68.8401 2.54001L75.7001 2.54001C77.0401 2.54001 78.1301 3.63001 78.1301 4.97001C78.1301 6.31001 77.0401 7.40001 75.7001 7.40001ZM75.8501 6.86575e-06L68.6801 6.55234e-06C65.9301 6.43213e-06 63.7101 2.23001 63.7101 4.97001C63.7101 7.71001 65.9401 9.94001 68.6801 9.94001L75.8501 9.94001C78.6001 9.94001 80.8201 7.71001 80.8201 4.97001C80.8201 2.23001 78.6001 6.98595e-06 75.8501 6.86575e-06Z" fill="#FFFFFF"></path>
<path d="M25.7001 2.55001L25.7001 3.82001L33.07 3.82001L33.07 6.13001L25.7001 6.13001L25.7001 7.40001L37.3 7.40001L37.3 9.95001L22.99 9.95001L22.99 6.45748e-06L37.3 7.08299e-06L37.3 2.55001" fill="#FFFFFF"></path>
<path d="M157.75 6.96497e-06L157.75 3.70001L148.13 3.70001L148.13 6.54447e-06L145.43 6.42645e-06L145.43 9.95001L148.13 9.95001L148.13 6.25001L157.75 6.25001L157.75 9.95001L160.45 9.95001L160.45 7.08299e-06" fill="#FFFFFF"></path>
<path d="M9.67995 6.13001L14.2399 6.13001L14.2399 7.40001L6.49995 7.40001C5.15995 7.40001 4.06995 6.31001 4.06995 4.97001C4.06995 3.63001 5.15995 2.54001 6.49995 2.54001L16.1499 2.54001L16.1499 7.04802e-06L6.34995 6.61965e-06C3.59995 6.49945e-06 1.37994 2.23001 1.37994 4.97001C1.37994 7.71001 3.60994 9.94001 6.34994 9.94001L16.95 9.94001L16.95 3.82001L9.68994 3.82001" fill="#FFFFFF"></path>
<path d="M124.73 4.97001C124.73 7.72001 126.96 9.94001 129.7 9.94001L139.5 9.94001L139.5 7.40001L129.85 7.40001C128.51 7.40001 127.42 6.31001 127.42 4.97001C127.42 3.63001 128.51 2.54001 129.85 2.54001L139.5 2.54001L139.5 7.08299e-06L129.7 6.65462e-06C126.95 6.53441e-06 124.73 2.23001 124.73 4.97001Z" fill="#FFFFFF"></path>
<path d="M45.8401 2.54001L54.3401 2.54001C54.7901 2.54001 55.1501 2.90001 55.1501 3.35001C55.1501 3.80001 54.7901 4.16001 54.3401 4.16001L45.8401 4.16001M54.6801 9.94001L59.1201 9.94001L54.5001 6.70001C56.3501 6.70001 57.8501 5.20001 57.8501 3.35001C57.8501 1.50001 56.3501 6.96191e-06 54.5001 6.88105e-06L43.1501 6.38492e-06L43.1501 9.95001L45.8501 9.95001L45.8501 6.70001L50.0701 6.70001L54.6901 9.94001L54.6801 9.94001Z" fill="#FFFFFF"></path>
<path d="M162.04 15.6798L162.04 14.5298L4.57764e-05 14.5298L4.57261e-05 15.6798L162.04 15.6798Z" fill="#EE7722"></path>
<path d="M6.41998 20.27L5.20998 23.08L4.01997 20.27L2.95998 20.27L2.95998 25.16L3.96997 25.16L3.96997 23.22L3.85999 22.27L3.92998 22.27L4.16998 22.94L4.83998 24.52L5.60999 24.52L6.27998 22.95L6.50998 22.27L6.58998 22.27L6.45998 23.21L6.45998 25.16L7.47998 25.16L7.47998 20.27" fill="#EE7722"></path>
<path d="M11.5701 20.27L9.85005 25.17L10.94 25.17L11.3501 24.05L12.8101 24.05L13.2401 25.17L14.3 25.17L12.5401 20.27M11.8801 22.05L12.0301 21.34L12.08 21.34L12.2301 22.04L12.5401 23.11L11.6001 23.11L11.8801 22.05Z" fill="#EE7722"></path>
<path d="M20.0901 24.2099C19.6701 24.8899 19.0001 25.2299 18.3501 25.2299C17.4001 25.2299 16.4301 24.6799 16.4301 23.5999L16.4301 21.8199C16.4301 20.7499 17.3801 20.1899 18.3501 20.1899C19.0001 20.1899 19.7201 20.5199 20.0501 21.2399L19.2301 21.6799C19.0401 21.3099 18.6401 21.1499 18.2701 21.1599C17.8301 21.1599 17.4301 21.4099 17.4301 21.8199L17.4301 23.5999C17.4301 23.9999 17.8201 24.2399 18.2501 24.2399C18.6201 24.2399 19.0201 24.0799 19.2101 23.7099" fill="#EE7722"></path>
<path d="M25.3801 20.27L25.3801 22.21L23.5701 22.21L23.5701 20.27L22.5501 20.27L22.5501 25.16L23.5701 25.16L23.5701 23.16L25.3801 23.16L25.3801 25.16L26.3901 25.16L26.3901 20.27" fill="#EE7722"></path>
<path d="M30.24 25.17L30.24 20.27L29.22 20.27L29.22 25.17L30.24 25.17Z" fill="#EE7722"></path>
<path d="M36.0302 23.81C35.9802 23.49 35.8902 22.88 35.8902 22.77L35.8902 20.27L36.9102 20.27L36.9102 25.17L35.8202 25.17L34.3302 22.6L34.0302 21.94L33.9602 21.94L34.0902 22.79L34.0902 25.18L33.0702 25.18L33.0702 20.28L34.0702 20.28L35.6202 22.95L35.9702 23.84" fill="#EE7722"></path>
<path d="M39.73 20.2598L39.73 25.1598L43.05 25.1598L43.05 24.1698L40.75 24.1698L40.75 23.2098L42.86 23.2098L42.86 22.2198L40.75 22.2198L40.75 21.2598L43.05 21.2598L43.05 20.2598" fill="#EE7722"></path>
<path d="M46.2501 23.7102C46.6901 24.4202 47.9801 24.4302 48.0201 23.7402C48.0401 23.3202 47.5801 23.2202 47.0801 23.1502C46.3101 23.0302 45.5201 22.6702 45.5301 21.5902C45.5801 20.6602 46.4401 20.1802 47.3101 20.1802C47.9501 20.1802 48.5501 20.4302 48.9601 21.0402L48.1201 21.6002C47.9101 21.2802 47.6201 21.1402 47.3001 21.1402C46.9101 21.1402 46.5701 21.2902 46.5501 21.6202C46.5501 22.0202 46.9701 22.0802 47.4001 22.1702C48.2501 22.3302 49.0801 22.6402 49.0301 23.7902C48.9501 24.7102 48.0601 25.2102 47.1701 25.2102C46.5301 25.2102 45.8801 24.9002 45.4701 24.2802" fill="#EE7722"></path>
<path d="M59.0801 23.7102C59.5201 24.4202 60.8101 24.4302 60.8501 23.7402C60.8701 23.3202 60.4101 23.2202 59.9101 23.1502C59.1401 23.0302 58.3501 22.6702 58.3601 21.5902C58.4101 20.6602 59.2701 20.1802 60.1401 20.1802C60.7801 20.1802 61.3801 20.4302 61.7901 21.0402L60.9502 21.6002C60.7402 21.2802 60.4501 21.1402 60.1301 21.1402C59.7401 21.1402 59.4001 21.2902 59.3801 21.6202C59.3801 22.0202 59.8001 22.0802 60.2201 22.1702C61.0701 22.3302 61.9001 22.6402 61.8501 23.7902C61.7701 24.7102 60.8801 25.2102 59.9901 25.2102C59.3501 25.2102 58.7001 24.9002 58.2901 24.2802" fill="#EE7722"></path>
<path d="M65.3401 23.6098C65.3401 24.0198 65.8401 24.2298 66.3401 24.2298C66.8401 24.2298 67.3301 24.0198 67.3301 23.6098L67.3301 21.8298C67.3301 21.4098 66.8301 21.1998 66.3301 21.2098C65.8401 21.2098 65.3401 21.4198 65.3401 21.8298M64.3301 21.8298C64.3301 20.7398 65.3301 20.1898 66.3401 20.1998C67.3401 20.1998 68.3401 20.7498 68.3401 21.8298L68.3401 23.6098C68.3401 24.6998 67.3401 25.2398 66.3401 25.2398C65.3401 25.2398 64.3301 24.6998 64.3301 23.6098L64.3301 21.8298Z" fill="#EE7722"></path>
<path d="M71.0399 20.27L71.0399 25.16L74.1699 25.16L74.1699 24.14L72.0599 24.14L72.0599 20.27" fill="#EE7722"></path>
<path d="M77.5801 23.5498C77.5801 24.0098 78.0201 24.2298 78.4701 24.2298C78.9201 24.2298 79.3701 23.9998 79.3701 23.5498L79.3701 20.2598L80.3901 20.2598L80.3901 23.5498C80.3901 24.6698 79.4401 25.2298 78.4601 25.2298C77.4801 25.2298 76.5401 24.6698 76.5401 23.5498L76.5401 20.2598L77.5601 20.2598" fill="#EE7722"></path>
<path d="M82.8599 20.2598L82.8599 21.2798L84.27 21.2798L84.27 25.1598L85.2899 25.1598L85.2899 21.2798L86.7 21.2798L86.7 20.2598" fill="#EE7722"></path>
<path d="M90.21 25.17L90.21 20.27L89.19 20.27L89.19 25.17L90.21 25.17Z" fill="#EE7722"></path>
<path d="M93.9199 23.6098C93.9199 24.0198 94.4199 24.2298 94.9199 24.2298C95.4199 24.2298 95.9099 24.0198 95.9099 23.6098L95.9099 21.8298C95.9099 21.4098 95.4099 21.1998 94.9099 21.2098C94.4199 21.2098 93.9199 21.4198 93.9199 21.8298M92.9099 21.8298C92.9099 20.7398 93.9099 20.1898 94.9199 20.1998C95.9199 20.1998 96.9199 20.7498 96.9199 21.8298L96.9199 23.6098C96.9199 24.6998 95.9199 25.2398 94.9199 25.2398C93.9199 25.2398 92.9099 24.6998 92.9099 23.6098L92.9099 21.8298Z" fill="#EE7722"></path>
<path d="M102.59 23.81C102.54 23.49 102.45 22.88 102.45 22.77L102.45 20.27L103.47 20.27L103.47 25.17L102.38 25.17L100.89 22.6L100.59 21.94L100.52 21.94L100.65 22.79L100.65 25.18L99.63 25.18L99.63 20.28L100.63 20.28L102.18 22.95L102.53 23.84" fill="#EE7722"></path>
<path d="M106.8 23.7102C107.24 24.4202 108.53 24.4302 108.57 23.7402C108.59 23.3202 108.13 23.2202 107.63 23.1502C106.86 23.0302 106.07 22.6702 106.08 21.5902C106.13 20.6602 106.99 20.1802 107.86 20.1802C108.5 20.1802 109.1 20.4302 109.51 21.0402L108.67 21.6002C108.46 21.2802 108.17 21.1402 107.85 21.1402C107.46 21.1402 107.12 21.2902 107.1 21.6202C107.1 22.0202 107.52 22.0802 107.94 22.1702C108.79 22.3302 109.62 22.6402 109.57 23.7902C109.49 24.7102 108.6 25.2102 107.71 25.2102C107.07 25.2102 106.42 24.9002 106.01 24.2802" fill="#EE7722"></path>
<path d="M114.23 22.0498C114.6 22.0498 114.9 22.3398 114.9 22.7198C114.9 23.0998 114.6 23.3998 114.23 23.3998C113.86 23.3998 113.57 23.0998 113.57 22.7198C113.57 22.3398 113.86 22.0498 114.23 22.0498Z" fill="#EE7722"></path>
<path d="M119.64 23.7102C120.08 24.4202 121.37 24.4302 121.41 23.7402C121.43 23.3202 120.97 23.2202 120.47 23.1502C119.7 23.0302 118.91 22.6702 118.92 21.5902C118.97 20.6602 119.83 20.1802 120.7 20.1802C121.34 20.1802 121.94 20.4302 122.35 21.0402L121.51 21.6002C121.3 21.2802 121.01 21.1402 120.69 21.1402C120.3 21.1402 119.96 21.2902 119.94 21.6202C119.94 22.0202 120.36 22.0802 120.78 22.1702C121.63 22.3302 122.46 22.6402 122.41 23.7902C122.33 24.7102 121.44 25.2102 120.55 25.2102C119.91 25.2102 119.26 24.9002 118.85 24.2802" fill="#EE7722"></path>
<path d="M126 23.5498C126 24.0098 126.44 24.2298 126.89 24.2298C127.36 24.2298 127.8 23.9998 127.8 23.5498L127.8 20.2598L128.82 20.2598L128.82 23.5498C128.82 24.6698 127.87 25.2298 126.89 25.2298C125.91 25.2298 124.97 24.6698 124.97 23.5498L124.97 20.2598L125.99 20.2598" fill="#EE7722"></path>
<path d="M133.54 22.6898C134.53 22.6898 134.54 21.2898 133.54 21.2898L132.62 21.2898L132.62 22.6898M131.61 20.2698L133.54 20.2698C135.89 20.2698 135.86 23.6498 133.54 23.6498L132.61 23.6498L132.61 25.1598L131.6 25.1598L131.6 20.2598L131.61 20.2698Z" fill="#EE7722"></path>
<path d="M139.77 22.6898C140.76 22.6898 140.77 21.2898 139.77 21.2898L138.85 21.2898L138.85 22.6898M137.84 20.2698L139.77 20.2698C142.11 20.2698 142.09 23.6498 139.77 23.6498L138.84 23.6498L138.84 25.1598L137.83 25.1598L137.83 20.2598L137.84 20.2698Z" fill="#EE7722"></path>
<path d="M144.96 23.6098C144.96 24.0198 145.46 24.2298 145.96 24.2298C146.46 24.2298 146.95 24.0198 146.95 23.6098L146.95 21.8298C146.95 21.4098 146.45 21.1998 145.95 21.2098C145.46 21.2098 144.96 21.4198 144.96 21.8298M143.95 21.8298C143.95 20.7398 144.95 20.1898 145.96 20.1998C146.96 20.1998 147.96 20.7498 147.96 21.8298L147.96 23.6098C147.96 24.6998 146.96 25.2398 145.96 25.2398C144.96 25.2398 143.95 24.6998 143.95 23.6098L143.95 21.8298Z" fill="#EE7722"></path>
<path d="M152.59 22.4498C153.04 22.4498 153.32 22.2698 153.32 21.8398C153.32 21.4098 153.02 21.2798 152.59 21.2898L151.68 21.2898L151.68 22.4398M152.04 23.3698L151.68 23.3698L151.68 25.1598L150.66 25.1598L150.66 20.2598L152.59 20.2598C153.57 20.2598 154.31 20.7098 154.34 21.8198C154.34 22.7198 153.93 23.1598 153.23 23.2898L154.69 25.1498L153.44 25.1498L152.05 23.3598L152.04 23.3698Z" fill="#EE7722"></path>
<path d="M156.62 20.2598L156.62 21.2798L158.02 21.2798L158.02 25.1598L159.05 25.1598L159.05 21.2798L160.45 21.2798L160.45 20.2598" fill="#EE7722"></path>
<path d="M53.6901 22.0498C54.0601 22.0498 54.3601 22.3398 54.3601 22.7198C54.3601 23.0998 54.0601 23.3998 53.6901 23.3998C53.3201 23.3998 53.0301 23.0998 53.0301 22.7198C53.0301 22.3398 53.3201 22.0498 53.6901 22.0498Z" fill="#EE7722"></path>
<path d="M108.08 2.55001L108.08 3.82001L115.44 3.82001L115.44 6.13001L108.08 6.13001L108.08 7.40001L119.67 7.40001L119.67 9.95001L105.36 9.95001L105.36 6.45748e-06L119.67 7.08299e-06L119.67 2.55001" fill="#FFFFFF"></path>
</g>
<defs>
<clipPath id="clip0_6589_263">
<rect width="25.24" height="162.04" fill="white" transform="translate(162.04 7.08299e-06) rotate(90)"></rect>
</clipPath>
</defs>
</svg>